<svg xmlns="http://www.w3.org/2000/svg" version="1.1" xmlns:xlink="http://www.w3.org/1999/xlink" xmlns:svgjs="http://svgjs.dev/svgjs" viewBox="0 0 10.277667910391218 2.9927195882984305"><g transform="matrix(1,0,0,1,2.794802873421422,0.6639025253992153)"><rect width="10.277667910391218" height="10.277667910391218" x="-2.794802873421422" y="-4.306376686445609" fill="#ffffff"></rect><g><path d=" M 0.039735 0.015894000000000075 L 0.42781349999999996 0.943044 L 0.5072835 0.943044 L 0.8834415 0.015894000000000075 L 0.8145675 0.015894000000000075 L 0.5059589999999999 0.778806 L 0.500661 0.778806 L 0.182781 0.015894000000000075 L 0.039735 0.015894000000000075 M 0.9881054560546875 0.47946900000000003 Q 0.9881054560546875 0.553641 1.0165822060546874 0.63774675 Q 1.0450589560546875 0.7218525 1.1059859560546874 0.7933755 Q 1.1669129560546874 0.8648985 1.2609524560546874 0.91191825 Q 1.3549919560546875 0.958938 1.4861174560546875 0.958938 Q 1.5748589560546875 0.958938 1.6470442060546875 0.93708375 Q 1.7192294560546875 0.9152295 1.7768452060546873 0.8781435 Q 1.8344609560546874 0.8410575 1.8768449560546876 0.79271325 Q 1.9192289560546874 0.7443690000000001 1.9463812060546872 0.6907267500000001 Q 1.9735334560546876 0.6370845 1.9874407060546875 0.5827800000000001 Q 2.0013479560546874 0.5284755 2.0013479560546874 0.47946900000000003 Q 2.0013479560546874 0.405297 1.9708844560546877 0.32119125000000004 Q 1.9404209560546875 0.23708550000000006 1.8768449560546876 0.16556250000000006 Q 1.8132689560546873 0.09403950000000005 1.7159182060546874 0.04701975000000003 Q 1.6185674560546874 0 1.4861174560546875 0 Q 1.3549919560546875 0 1.2609524560546874 0.04635750000000005 Q 1.1669129560546874 0.09271499999999999 1.1059859560546874 0.16357575000000002 Q 1.0450589560546875 0.23443650000000005 1.0165822060546874 0.3192045 Q 0.9881054560546875 0.40397250000000007 0.9881054560546875 0.47946900000000003 M 1.1179064560546874 0.47946900000000003 Q 1.1179064560546874 0.38675400000000004 1.1463832060546875 0.30927075000000004 Q 1.1748599560546875 0.23178750000000004 1.2245287060546874 0.1761585 Q 1.2741974560546874 0.12052950000000007 1.3417469560546875 0.08940375 Q 1.4092964560546875 0.05827800000000005 1.4887664560546874 0.05827800000000005 Q 1.5669119560546876 0.05827800000000005 1.6364482060546874 0.08940375 Q 1.7059844560546873 0.12052950000000007 1.7583022060546876 0.1761585 Q 1.8106199560546874 0.23178750000000004 1.8410834560546876 0.30927075000000004 Q 1.8715469560546873 0.38675400000000004 1.8715469560546873 0.47946900000000003 Q 1.8715469560546873 0.572184 1.8410834560546876 0.64966725 Q 1.8106199560546874 0.7271505 1.7583022060546876 0.7827795 Q 1.7059844560546873 0.8384085 1.6364482060546874 0.86953425 Q 1.5669119560546876 0.90066 1.4887664560546874 0.90066 Q 1.4092964560546875 0.90066 1.3417469560546875 0.86953425 Q 1.2741974560546874 0.8384085 1.2245287060546874 0.7827795 Q 1.1748599560546875 0.7271505 1.1463832060546875 0.64966725 Q 1.1179064560546874 0.572184 1.1179064560546874 0.47946900000000003 M 2.238420521484375 0.943044 L 2.238420521484375 0.015894000000000075 L 2.543055521484375 0.015894000000000075 Q 2.652989021484375 0.015894000000000075 2.744379521484375 0.05099324999999999 Q 2.8357700214843753 0.08609250000000002 2.901332771484375 0.14768175000000006 Q 2.966895521484375 0.20927099999999998 3.003319271484375 0.29403900000000005 Q 3.039743021484375 0.378807 3.039743021484375 0.47682 Q 3.039743021484375 0.5788065 3.001994771484375 0.6642367499999999 Q 2.964246521484375 0.749667 2.898683771484375 0.8119185 Q 2.833121021484375 0.87417 2.745704021484375 0.9086069999999999 Q 2.658287021484375 0.943044 2.558949521484375 0.943044 L 2.238420521484375 0.943044 M 2.3589500214843753 0.8847659999999999 L 2.504645021484375 0.8847659999999999 Q 2.613254021484375 0.8847659999999999 2.689412771484375 0.84834225 Q 2.7655715214843752 0.8119185 2.814578021484375 0.7536404999999999 Q 2.863584521484375 0.6953625 2.886101021484375 0.62317725 Q 2.9086175214843752 0.550992 2.9086175214843752 0.47946900000000003 Q 2.9086175214843752 0.399999 2.882127521484375 0.32648925000000006 Q 2.855637521484375 0.2529795 2.804644271484375 0.19668825 Q 2.753651021484375 0.140397 2.678154521484375 0.1072845 Q 2.602658021484375 0.07417200000000002 2.504645021484375 0.07417200000000002 L 2.3589500214843753 0.07417200000000002 L 2.3589500214843753 0.8847659999999999 M 3.151020423339844 0.015894000000000075 L 3.151020423339844 0.08874150000000003 L 3.711283923339844 0.08874150000000003 L 3.117907923339844 0.943044 L 3.920554923339844 0.943044 L 3.920554923339844 0.8701965 L 3.309960423339844 0.8701965 L 3.8980384233398437 0.015894000000000075 L 3.151020423339844 0.015894000000000075 M 4.031833618652344 0.015894000000000075 L 4.031833618652344 0.08874150000000003 L 4.592097118652344 0.08874150000000003 L 3.998721118652344 0.943044 L 4.801368118652344 0.943044 L 4.801368118652344 0.8701965 L 4.1907736186523445 0.8701965 L 4.778851618652344 0.015894000000000075 L 4.031833618652344 0.015894000000000075 M 5.513969813964844 0.6701969999999999 L 5.641121813964844 0.943044 L 5.769598313964845 0.943044 L 5.337811313964845 0.015894000000000075 L 5.2715863139648445 0.015894000000000075 L 4.879534313964845 0.943044 L 4.940461313964844 0.943044 L 5.057017313964844 0.6701969999999999 L 5.513969813964844 0.6701969999999999 M 5.4861553139648445 0.6105944999999999 L 5.082182813964844 0.6105944999999999 L 5.272910813964844 0.164238 L 5.278208813964844 0.164238 L 5.4861553139648445 0.6105944999999999" fill="#102036" fill-rule="nonzero"></path></g><g><path d=" M 0.053498250000000004 1.3574434125 Q 0.0793845 1.3105605374999998 0.124254 1.2843866624999998 Q 0.1691235 1.2582127874999998 0.2243475 1.2582127874999998 Q 0.29165175 1.2582127874999998 0.33968512500000003 1.2901391624999998 Q 0.3877185 1.3220655374999999 0.409578 1.3801657874999997 L 0.3624075 1.3801657874999997 Q 0.34515 1.3393230374999998 0.309772125 1.3163130374999998 Q 0.27439425 1.2933030374999999 0.2243475 1.2933030374999999 Q 0.18005325 1.2933030374999999 0.144675375 1.3140120375 Q 0.1092975 1.3347210374999998 0.08916375 1.3735504124999998 Q 0.06903000000000001 1.4123797875 0.06903000000000001 1.4635770375 Q 0.06903000000000001 1.5147742874999999 0.08916375 1.5533160375 Q 0.1092975 1.5918577875 0.144675375 1.6125667874999998 Q 0.18005325 1.6332757875 0.2243475 1.6332757875 Q 0.27439425 1.6332757875 0.309772125 1.6105534124999998 Q 0.34515 1.5878310374999998 0.3624075 1.5475635374999999 L 0.409578 1.5475635374999999 Q 0.3877185 1.6050885375 0.3393975 1.6367272874999998 Q 0.2910765 1.6683660374999998 0.2243475 1.6683660374999998 Q 0.1691235 1.6683660374999998 0.124254 1.6421921624999998 Q 0.0793845 1.6160182874999998 0.053498250000000004 1.5694230374999998 Q 0.027612 1.5228277874999998 0.027612 1.4635770375 Q 0.027612 1.4043262874999998 0.053498250000000004 1.3574434125 M 0.5703581279296874 1.6427674124999998 Q 0.5249133779296875 1.6165935374999998 0.49873950292968744 1.5697106625 Q 0.4725656279296875 1.5228277874999998 0.4725656279296875 1.4635770375 Q 0.4725656279296875 1.4043262874999998 0.49873950292968744 1.3574434125 Q 0.5249133779296875 1.3105605374999998 0.5703581279296874 1.2843866624999998 Q 0.6158028779296875 1.2582127874999998 0.6716021279296874 1.2582127874999998 Q 0.7279766279296875 1.2582127874999998 0.7734213779296875 1.2843866624999998 Q 0.8188661279296875 1.3105605374999998 0.8447523779296875 1.3574434125 Q 0.8706386279296875 1.4043262874999998 0.8706386279296875 1.4635770375 Q 0.8706386279296875 1.5228277874999998 0.8447523779296875 1.5697106625 Q 0.8188661279296875 1.6165935374999998 0.7734213779296875 1.6427674124999998 Q 0.7279766279296875 1.6689412874999998 0.6716021279296874 1.6689412874999998 Q 0.6158028779296875 1.6689412874999998 0.5703581279296874 1.6427674124999998 M 0.7521371279296875 1.6131420374999998 Q 0.7878026279296875 1.5924330374999998 0.8085116279296874 1.5536036624999998 Q 0.8292206279296874 1.5147742874999999 0.8292206279296874 1.4635770375 Q 0.8292206279296874 1.4123797875 0.8085116279296874 1.3738380374999999 Q 0.7878026279296875 1.3352962874999998 0.7521371279296875 1.3145872874999998 Q 0.7164716279296874 1.2938782875 0.6716021279296874 1.2938782875 Q 0.6267326279296874 1.2938782875 0.5910671279296875 1.3145872874999998 Q 0.5554016279296875 1.3352962874999998 0.5346926279296874 1.3738380374999999 Q 0.5139836279296874 1.4123797875 0.5139836279296874 1.4635770375 Q 0.5139836279296874 1.5147742874999999 0.5346926279296874 1.5536036624999998 Q 0.5554016279296875 1.5924330374999998 0.5910671279296875 1.6131420374999998 Q 0.6267326279296874 1.6338510375 0.6716021279296874 1.6338510375 Q 0.7164716279296874 1.6338510375 0.7521371279296875 1.6131420374999998 M 1.1792745780029297 1.2869752874999998 Q 1.2270203280029297 1.3111357874999998 1.2523313280029296 1.3565805374999997 Q 1.2776423280029297 1.4020252874999999 1.2776423280029297 1.4647275375 Q 1.2776423280029297 1.5268545374999998 1.2523313280029296 1.5720116624999998 Q 1.2270203280029297 1.6171687874999998 1.1792745780029297 1.6410416625 Q 1.1315288280029296 1.6649145374999998 1.0647998280029296 1.6649145374999998 L 0.9457230780029295 1.6649145374999998 L 0.9457230780029295 1.2628147874999998 L 1.0647998280029296 1.2628147874999998 Q 1.1315288280029296 1.2628147874999998 1.1792745780029297 1.2869752874999998 M 1.1927929530029295 1.5875434124999999 Q 1.2367995780029295 1.5435367875 1.2367995780029295 1.4647275375 Q 1.2367995780029295 1.3853430374999998 1.1927929530029295 1.3407611624999998 Q 1.1487863280029296 1.2961792874999998 1.0647998280029296 1.2961792874999998 L 0.9859905780029296 1.2961792874999998 L 0.9859905780029296 1.6315500374999998 L 1.0647998280029296 1.6315500374999998 Q 1.1487863280029296 1.6315500374999998 1.1927929530029295 1.5875434124999999 M 1.3935515515136718 1.2956040374999997 L 1.3935515515136718 1.4457442874999997 L 1.5459928015136717 1.4457442874999997 L 1.5459928015136717 1.4791087874999997 L 1.3935515515136718 1.4791087874999997 L 1.3935515515136718 1.6315500374999998 L 1.5632503015136718 1.6315500374999998 L 1.5632503015136718 1.6649145374999998 L 1.3532840515136717 1.6649145374999998 L 1.3532840515136717 1.2622395374999997 L 1.5632503015136718 1.2622395374999997 L 1.5632503015136718 1.2956040374999997 L 1.3935515515136718 1.2956040374999997 M 1.6299739647216795 1.6591620374999998 Q 1.6216328397216795 1.6505332874999998 1.6216328397216795 1.6378777875 Q 1.6216328397216795 1.6252222874999998 1.6299739647216795 1.6168811625 Q 1.6383150897216794 1.6085400374999999 1.6509705897216795 1.6085400374999999 Q 1.6630508397216794 1.6085400374999999 1.6713919647216795 1.6168811625 Q 1.6797330897216796 1.6252222874999998 1.6797330897216796 1.6378777875 Q 1.6797330897216796 1.6505332874999998 1.6713919647216795 1.6591620374999998 Q 1.6630508397216794 1.6677907874999998 1.6509705897216795 1.6677907874999998 Q 1.6383150897216794 1.6677907874999998 1.6299739647216795 1.6591620374999998 M 1.9167324382324218 1.3574434125 Q 1.9426186882324217 1.3105605374999998 1.9874881882324218 1.2843866624999998 Q 2.032357688232422 1.2582127874999998 2.087581688232422 1.2582127874999998 Q 2.1548859382324217 1.2582127874999998 2.202919313232422 1.2901391624999998 Q 2.2509526882324216 1.3220655374999999 2.2728121882324217 1.3801657874999997 L 2.2256416882324217 1.3801657874999997 Q 2.2083841882324218 1.3393230374999998 2.1730063132324218 1.3163130374999998 Q 2.1376284382324218 1.2933030374999999 2.087581688232422 1.2933030374999999 Q 2.0432874382324218 1.2933030374999999 2.0079095632324218 1.3140120375 Q 1.9725316882324218 1.3347210374999998 1.9523979382324217 1.3735504124999998 Q 1.9322641882324216 1.4123797875 1.9322641882324216 1.4635770375 Q 1.9322641882324216 1.5147742874999999 1.9523979382324217 1.5533160375 Q 1.9725316882324218 1.5918577875 2.0079095632324218 1.6125667874999998 Q 2.0432874382324218 1.6332757875 2.087581688232422 1.6332757875 Q 2.1376284382324218 1.6332757875 2.1730063132324218 1.6105534124999998 Q 2.2083841882324218 1.5878310374999998 2.2256416882324217 1.5475635374999999 L 2.2728121882324217 1.5475635374999999 Q 2.2509526882324216 1.6050885375 2.2026316882324215 1.6367272874999998 Q 2.154310688232422 1.6683660374999998 2.087581688232422 1.6683660374999998 Q 2.032357688232422 1.6683660374999998 1.9874881882324218 1.6421921624999998 Q 1.9426186882324217 1.6160182874999998 1.9167324382324218 1.5694230374999998 Q 1.8908461882324217 1.5228277874999998 1.8908461882324217 1.4635770375 Q 1.8908461882324217 1.4043262874999998 1.9167324382324218 1.3574434125 M 2.568200816162109 1.6649145374999998 L 2.4686825661621095 1.4969415375 L 2.3944753161621093 1.4969415375 L 2.3944753161621093 1.6649145374999998 L 2.354207816162109 1.6649145374999998 L 2.354207816162109 1.2628147874999998 L 2.475010316162109 1.2628147874999998 Q 2.5423145661621094 1.2628147874999998 2.577117191162109 1.2950287874999997 Q 2.6119198161621093 1.3272427875 2.6119198161621093 1.3795905375 Q 2.6119198161621093 1.4233095374999998 2.5868964411621094 1.4540854124999998 Q 2.5618730661621094 1.4848612874999998 2.512976816162109 1.4940652874999998 L 2.616521816162109 1.6649145374999998 L 2.568200816162109 1.6649145374999998 M 2.3944753161621093 1.4641522875 L 2.4755855661621093 1.4641522875 Q 2.5227560661621093 1.4641522875 2.5466289411621092 1.4411422875 Q 2.570501816162109 1.4181322874999998 2.570501816162109 1.3795905375 Q 2.570501816162109 1.3398982874999998 2.5474918161621094 1.3183264124999998 Q 2.524481816162109 1.2967545374999998 2.475010316162109 1.2967545374999998 L 2.3944753161621093 1.2967545374999998 L 2.3944753161621093 1.4641522875 M 2.733570866088867 1.2956040374999997 L 2.733570866088867 1.4457442874999997 L 2.886012116088867 1.4457442874999997 L 2.886012116088867 1.4791087874999997 L 2.733570866088867 1.4791087874999997 L 2.733570866088867 1.6315500374999998 L 2.903269616088867 1.6315500374999998 L 2.903269616088867 1.6649145374999998 L 2.693303366088867 1.6649145374999998 L 2.693303366088867 1.2622395374999997 L 2.903269616088867 1.2622395374999997 L 2.903269616088867 1.2956040374999997 L 2.733570866088867 1.2956040374999997 M 3.217063154296875 1.5694230374999998 L 3.0341336542968746 1.5694230374999998 L 2.999043404296875 1.6649145374999998 L 2.9564749042968748 1.6649145374999998 L 3.103163654296875 1.2679920374999998 L 3.148608404296875 1.2679920374999998 L 3.2947219042968747 1.6649145374999998 L 3.252153404296875 1.6649145374999998 L 3.217063154296875 1.5694230374999998 M 3.204982904296875 1.5360585374999998 L 3.1255984042968747 1.3186140374999997 L 3.046213904296875 1.5360585374999998 L 3.204982904296875 1.5360585374999998 M 3.595852358642578 1.2628147874999998 L 3.595852358642578 1.2961792874999998 L 3.484253858642578 1.2961792874999998 L 3.484253858642578 1.6649145374999998 L 3.443986358642578 1.6649145374999998 L 3.443986358642578 1.2961792874999998 L 3.331812608642578 1.2961792874999998 L 3.331812608642578 1.2628147874999998 L 3.595852358642578 1.2628147874999998 M 3.7014219689941403 1.2956040374999997 L 3.7014219689941403 1.4457442874999997 L 3.85386321899414 1.4457442874999997 L 3.85386321899414 1.4791087874999997 L 3.7014219689941403 1.4791087874999997 L 3.7014219689941403 1.6315500374999998 L 3.87112071899414 1.6315500374999998 L 3.87112071899414 1.6649145374999998 L 3.66115446899414 1.6649145374999998 L 3.66115446899414 1.2622395374999997 L 3.87112071899414 1.2622395374999997 L 3.87112071899414 1.2956040374999997 L 3.7014219689941403 1.2956040374999997 M 3.937844382202148 1.6591620374999998 Q 3.929503257202148 1.6505332874999998 3.929503257202148 1.6378777875 Q 3.929503257202148 1.6252222874999998 3.937844382202148 1.6168811625 Q 3.946185507202148 1.6085400374999999 3.958841007202148 1.6085400374999999 Q 3.970921257202148 1.6085400374999999 3.979262382202148 1.6168811625 Q 3.987603507202148 1.6252222874999998 3.987603507202148 1.6378777875 Q 3.987603507202148 1.6505332874999998 3.979262382202148 1.6591620374999998 Q 3.970921257202148 1.6677907874999998 3.958841007202148 1.6677907874999998 Q 3.946185507202148 1.6677907874999998 3.937844382202148 1.6591620374999998 M 4.22460285571289 1.3574434125 Q 4.25048910571289 1.3105605374999998 4.29535860571289 1.2843866624999998 Q 4.340228105712891 1.2582127874999998 4.395452105712891 1.2582127874999998 Q 4.46275635571289 1.2582127874999998 4.51078973071289 1.2901391624999998 Q 4.55882310571289 1.3220655374999999 4.58068260571289 1.3801657874999997 L 4.53351210571289 1.3801657874999997 Q 4.5162546057128905 1.3393230374999998 4.4808767307128905 1.3163130374999998 Q 4.4454988557128905 1.2933030374999999 4.395452105712891 1.2933030374999999 Q 4.3511578557128905 1.2933030374999999 4.3157799807128905 1.3140120375 Q 4.2804021057128905 1.3347210374999998 4.26026835571289 1.3735504124999998 Q 4.24013460571289 1.4123797875 4.24013460571289 1.4635770375 Q 4.24013460571289 1.5147742874999999 4.26026835571289 1.5533160375 Q 4.2804021057128905 1.5918577875 4.3157799807128905 1.6125667874999998 Q 4.3511578557128905 1.6332757875 4.395452105712891 1.6332757875 Q 4.4454988557128905 1.6332757875 4.4808767307128905 1.6105534124999998 Q 4.5162546057128905 1.5878310374999998 4.53351210571289 1.5475635374999999 L 4.58068260571289 1.5475635374999999 Q 4.55882310571289 1.6050885375 4.51050210571289 1.6367272874999998 Q 4.46218110571289 1.6683660374999998 4.395452105712891 1.6683660374999998 Q 4.340228105712891 1.6683660374999998 4.29535860571289 1.6421921624999998 Q 4.25048910571289 1.6160182874999998 4.22460285571289 1.5694230374999998 Q 4.198716605712891 1.5228277874999998 4.198716605712891 1.4635770375 Q 4.198716605712891 1.4043262874999998 4.22460285571289 1.3574434125 M 4.741462733642578 1.6427674124999998 Q 4.696017983642578 1.6165935374999998 4.669844108642578 1.5697106625 Q 4.643670233642578 1.5228277874999998 4.643670233642578 1.4635770375 Q 4.643670233642578 1.4043262874999998 4.669844108642578 1.3574434125 Q 4.696017983642578 1.3105605374999998 4.741462733642578 1.2843866624999998 Q 4.786907483642578 1.2582127874999998 4.8427067336425775 1.2582127874999998 Q 4.899081233642578 1.2582127874999998 4.944525983642578 1.2843866624999998 Q 4.989970733642578 1.3105605374999998 5.015856983642578 1.3574434125 Q 5.041743233642578 1.4043262874999998 5.041743233642578 1.4635770375 Q 5.041743233642578 1.5228277874999998 5.015856983642578 1.5697106625 Q 4.989970733642578 1.6165935374999998 4.944525983642578 1.6427674124999998 Q 4.899081233642578 1.6689412874999998 4.8427067336425775 1.6689412874999998 Q 4.786907483642578 1.6689412874999998 4.741462733642578 1.6427674124999998 M 4.923241733642578 1.6131420374999998 Q 4.958907233642578 1.5924330374999998 4.979616233642578 1.5536036624999998 Q 5.000325233642578 1.5147742874999999 5.000325233642578 1.4635770375 Q 5.000325233642578 1.4123797875 4.979616233642578 1.3738380374999999 Q 4.958907233642578 1.3352962874999998 4.923241733642578 1.3145872874999998 Q 4.887576233642578 1.2938782875 4.8427067336425775 1.2938782875 Q 4.797837233642578 1.2938782875 4.762171733642578 1.3145872874999998 Q 4.726506233642578 1.3352962874999998 4.705797233642578 1.3738380374999999 Q 4.685088233642578 1.4123797875 4.685088233642578 1.4635770375 Q 4.685088233642578 1.5147742874999999 4.705797233642578 1.5536036624999998 Q 4.726506233642578 1.5924330374999998 4.762171733642578 1.6131420374999998 Q 4.797837233642578 1.6338510375 4.8427067336425775 1.6338510375 Q 4.887576233642578 1.6338510375 4.923241733642578 1.6131420374999998 M 5.41998443371582 1.6649145374999998 L 5.37971693371582 1.6649145374999998 L 5.15709518371582 1.3266675374999999 L 5.15709518371582 1.6649145374999998 L 5.116827683715821 1.6649145374999998 L 5.116827683715821 1.2628147874999998 L 5.15709518371582 1.2628147874999998 L 5.37971693371582 1.6004865375 L 5.37971693371582 1.2628147874999998 L 5.41998443371582 1.2628147874999998 L 5.41998443371582 1.6649145374999998 M 5.844791671875 1.7437237874999998 L 5.755052671875 1.6603125374999999 Q 5.725714921875 1.6689412874999998 5.693500921875 1.6689412874999998 Q 5.637701671875 1.6689412874999998 5.592256921875 1.6427674124999998 Q 5.5468121718750005 1.6165935374999998 5.520638296875 1.5697106625 Q 5.4944644218750005 1.5228277874999998 5.4944644218750005 1.4635770375 Q 5.4944644218750005 1.4043262874999998 5.520638296875 1.3574434125 Q 5.5468121718750005 1.3105605374999998 5.592256921875 1.2843866624999998 Q 5.637701671875 1.2582127874999998 5.693500921875 1.2582127874999998 Q 5.749875421875 1.2582127874999998 5.795320171875 1.2843866624999998 Q 5.840764921875 1.3105605374999998 5.8666511718750005 1.3574434125 Q 5.892537421875 1.4043262874999998 5.892537421875 1.4635770375 Q 5.892537421875 1.5245535375 5.865500671875 1.5720116624999998 Q 5.838463921875 1.6194697875 5.791293421875 1.6447807874999998 L 5.898865171875 1.7437237874999998 L 5.844791671875 1.7437237874999998 M 5.556591421875 1.5536036624999998 Q 5.577300421875 1.5924330374999998 5.612965921875 1.6131420374999998 Q 5.648631421875 1.6338510375 5.693500921875 1.6338510375 Q 5.7383704218750005 1.6338510375 5.774035921875 1.6131420374999998 Q 5.809701421875 1.5924330374999998 5.830410421875 1.5536036624999998 Q 5.8511194218750004 1.5147742874999999 5.8511194218750004 1.4635770375 Q 5.8511194218750004 1.4123797875 5.830410421875 1.3738380374999999 Q 5.809701421875 1.3352962874999998 5.774035921875 1.3145872874999998 Q 5.7383704218750005 1.2938782875 5.693500921875 1.2938782875 Q 5.648631421875 1.2938782875 5.612965921875 1.3145872874999998 Q 5.577300421875 1.3352962874999998 5.556591421875 1.3738380374999999 Q 5.535882421875 1.4123797875 5.535882421875 1.4635770375 Q 5.535882421875 1.5147742874999999 5.556591421875 1.5536036624999998 M 6.006725389526367 1.2628147874999998 L 6.006725389526367 1.5159247875 Q 6.006725389526367 1.5757507874999999 6.035200264526368 1.6045132874999999 Q 6.063675139526367 1.6332757875 6.113146639526367 1.6332757875 Q 6.1626181395263675 1.6332757875 6.190517764526367 1.6048009124999998 Q 6.218417389526367 1.5763260374999999 6.218417389526367 1.5159247875 L 6.218417389526367 1.2628147874999998 L 6.258684889526367 1.2628147874999998 L 6.258684889526367 1.5153495375 Q 6.258684889526367 1.5918577875 6.218129764526367 1.6303995374999998 Q 6.177574639526367 1.6689412874999998 6.112571389526368 1.6689412874999998 Q 6.047568139526367 1.6689412874999998 6.007013014526367 1.6303995374999998 Q 5.966457889526367 1.5918577875 5.966457889526367 1.5153495375 L 5.966457889526367 1.2628147874999998 L 6.006725389526367 1.2628147874999998 M 6.390135693969727 1.2956040374999997 L 6.390135693969727 1.4457442874999997 L 6.542576943969727 1.4457442874999997 L 6.542576943969727 1.4791087874999997 L 6.390135693969727 1.4791087874999997 L 6.390135693969727 1.6315500374999998 L 6.559834443969727 1.6315500374999998 L 6.559834443969727 1.6649145374999998 L 6.349868193969727 1.6649145374999998 L 6.349868193969727 1.2622395374999997 L 6.559834443969727 1.2622395374999997 L 6.559834443969727 1.2956040374999997 L 6.390135693969727 1.2956040374999997 M 6.854644732177735 1.6649145374999998 L 6.755126482177735 1.4969415375 L 6.680919232177735 1.4969415375 L 6.680919232177735 1.6649145374999998 L 6.640651732177735 1.6649145374999998 L 6.640651732177735 1.2628147874999998 L 6.761454232177735 1.2628147874999998 Q 6.828758482177735 1.2628147874999998 6.863561107177735 1.2950287874999997 Q 6.898363732177735 1.3272427875 6.898363732177735 1.3795905375 Q 6.898363732177735 1.4233095374999998 6.873340357177735 1.4540854124999998 Q 6.848316982177735 1.4848612874999998 6.799420732177735 1.4940652874999998 L 6.902965732177735 1.6649145374999998 L 6.854644732177735 1.6649145374999998 M 6.680919232177735 1.4641522875 L 6.762029482177735 1.4641522875 Q 6.809199982177735 1.4641522875 6.833072857177735 1.4411422875 Q 6.856945732177735 1.4181322874999998 6.856945732177735 1.3795905375 Q 6.856945732177735 1.3398982874999998 6.833935732177735 1.3183264124999998 Q 6.8109257321777354 1.2967545374999998 6.761454232177735 1.2967545374999998 L 6.680919232177735 1.2967545374999998 L 6.680919232177735 1.4641522875 M 6.965653657104493 1.6591620374999998 Q 6.957312532104493 1.6505332874999998 6.957312532104493 1.6378777875 Q 6.957312532104493 1.6252222874999998 6.965653657104493 1.6168811625 Q 6.9739947821044925 1.6085400374999999 6.986650282104493 1.6085400374999999 Q 6.998730532104493 1.6085400374999999 7.007071657104492 1.6168811625 Q 7.015412782104493 1.6252222874999998 7.015412782104493 1.6378777875 Q 7.015412782104493 1.6505332874999998 7.007071657104492 1.6591620374999998 Q 6.998730532104493 1.6677907874999998 6.986650282104493 1.6677907874999998 Q 6.9739947821044925 1.6677907874999998 6.965653657104493 1.6591620374999998" fill="#3682ae" fill-rule="nonzero"></path></g><g clip-path="url(#SvgjsClipPath1223)"><g clip-path="url(#SvgjsClipPath12210c7fc08d-9758-4cc7-9d90-69ff277aa38a)"><path d=" M -0.33559727999300915 0.8424654307093639 C -0.3215579686072507 0.8710968968307865 -0.2977711560521046 0.9038601395672926 -0.2689651078201858 0.9487180429587491 C -0.21899582819363816 1.026552567221763 -0.1918895307875248 1.0426795896788752 -0.22368772241323054 1.069979867207762 C -0.2293955875258522 1.0748875643139408 -0.2840058415897646 1.1059898522491953 -0.30866556469739237 1.1162344274831906 C -0.34118390752889605 1.1297499925374592 -0.34828842952548955 1.1290468145924044 -0.34915891532643695 1.186040599414901 C -0.34709787652196455 1.2173562654852068 -0.32612377574704077 1.2513003622190988 -0.32406758644563727 1.2826063292832663 C -0.3211336370886828 1.3271271922114032 -0.3809037624183804 1.3319742705292152 -0.38229072029621336 1.353069608880873 C -0.38436873236142843 1.3847974827120733 -0.30035109168499785 1.3775595993810739 -0.3527087515731988 1.421881632683367 C -0.3770847787512699 1.4425162682434371 -0.37825108423944775 1.494941821174609 -0.37846446237449904 1.551198481530565 C -0.3789494126814337 1.6774625681956095 -0.47842969389447587 1.6361181297778944 -0.5961319828905887 1.6381427973093468 C -0.6344770036599123 1.6387999049752429 -0.6702178412809974 1.6411082684362515 -0.7035290778643397 1.6448666333149955 C -0.8937241634925803 1.6663184101422504 -0.9021162285540849 1.855172608171817 -0.9241329724889189 1.8766728800297656 C -0.9166574635075209 1.8508710989493067 -1.5211746933684622 1.8843763156554223 -1.5211746933684622 1.8843763156554223 C -1.49447332946864 1.4627386960426128 -1.6093410839207194 1.3299350544885549 -1.7007226950079528 1.2281464098145034 C -1.720227627232525 1.2066756346650163 -1.7379208908037114 1.1836263794993984 -1.753621074488386 1.159234971199088 C -1.7608726980780829 1.1465001761389835 -1.7677719244447396 1.1337847790911564 -1.774318753588358 1.121088780055607 L -1.58636171362662 1.121088780055607 L -1.4912362861698507 1.216214207512376 C -1.4913251937261225 1.2184773089447378 -1.49137045575477 1.2207509176337497 -1.4913720722557926 1.223035033579412 C -1.4913586851473366 1.3152323159724535 -1.4166227863071974 1.3899703857584793 -1.3244255043419595 1.389986450996275 C -1.2365428455812142 1.3899650186762256 -1.1637185489758415 1.3218275391915961 -1.1578596224191506 1.234140395608216 L -1.0845836310413226 1.234140395608216 C -1.0769649509679085 1.2700814049428755 -1.045236982929872 1.2957901692545208 -1.0084973526348087 1.2957921281288196 C -0.9878745118905412 1.2957921281388471 -0.9680963644553926 1.2875995705966639 -0.9535140412852108 1.273016792695187 C -0.9389317181150292 1.2584340147937105 -0.9307397773237127 1.238655611897621 -0.9307404204209044 1.2180327711633812 C -0.9307417594021337 1.175088965694063 -0.9655535472281938 1.140276092306483 -1.0084973526348437 1.1402734141979423 C -1.045238785953192 1.1402749306164344 -1.0769677757762355 1.1659865451745892 -1.084583631041323 1.2019299962216157 L -1.1588052755176728 1.2019299962216157 C -1.169452205547574 1.1185725582951749 -1.2403811750030844 1.0561104100398224 -1.3244158053358608 1.0560884656656193 C -1.3246728289985361 1.0560884656656193 -1.324927427909677 1.0560884656656193 -1.325174752566214 1.0560884656656193 L -1.4908216536574224 0.8904439893259456 L -1.8583557922770662 0.8904439893259456 C -1.8810102458655191 0.7854134518500359 -1.8817934406112182 0.6839109278570759 -1.864740163067861 0.5888849152132282 L -1.528068261981538 0.5888849152132282 L -1.4329404097732343 0.6840103426699973 C -1.4330373998346215 0.6862847596095208 -1.4330850866148033 0.6885591765490446 -1.4330834701137802 0.6908335934885685 C -1.433068743930895 0.7830308756637311 -1.3583317596234736 0.8577678599710888 -1.2661344774483811 0.8577825861538958 C -1.1805632793301963 0.8577625402142034 -1.108852380515046 0.7930653699722306 -1.1000559705840722 0.7079474898202928 L -1.022410576940763 0.7079474898202928 C -1.0147945688549282 0.7438904910996632 -0.9830653235609523 0.7696013015171375 -0.9463242985342484 0.7696016470924318 C -0.9033808853534604 0.7696003080190681 -0.8685687053937072 0.734788128059315 -0.8685673663203444 0.6918447148785271 C -0.8685673663203444 0.6489007470231616 -0.9033803306788826 0.6140877826646234 -0.9463242985342486 0.6140877826646234 C -0.9830631917807757 0.6140894987005818 -1.0147909044003864 0.6397970449370332 -1.0224105769407628 0.6757370904336927 L -1.0998789637220407 0.6757370904336927 C -1.1077038874065408 0.5897498976658883 -1.1797919828854129 0.5239090305995739 -1.2661344774484526 0.5238894503263095 L -1.266900698933409 0.5238894503263095 L -1.4325427505215482 0.35825224824124047 L -1.7827520394259513 0.35825224824124047 C -1.7494116712720684 0.29796741417660966 -1.7082679052911538 0.24234188393621375 -1.660384528477128 0.1928138757820143 L -1.2269553421512014 0.1928138757820143 L -1.1318274899428975 0.2879417279903176 C -1.1319244800042845 0.2902112954267716 -1.1319705502834432 0.29249056186936495 -1.1319705502834432 0.2947674035604233 C -1.1319531467563495 0.386962791881015 -1.0572169464054855 0.46169682130878964 -0.965021557618182 0.46171154672268155 C -0.8781231675506422 0.46169398367740044 -0.8057632822179515 0.3950315693510128 -0.798635107308832 0.3084260289552375 L -0.7176144595292573 0.3084260289552375 C -0.7099960039756847 0.3443648087619051 -0.67827043322229 0.37007225805294863 -0.6415330306258127 0.3700753367243075 C -0.6209106099756929 0.3700772660668237 -0.6011320635671558 0.3618868916363649 -0.5865484458936026 0.3473060023375437 C -0.5719648282200491 0.332725113038723 -0.5637707533193363 0.31294809941514257 -0.5637688241573033 0.29232567876500626 C -0.5637688241573033 0.24938171090964123 -0.5985817885158415 0.21456874655110303 -0.6415257563712076 0.21456874655110303 C -0.6782649619625378 0.2145713828887834 -0.7099915544113393 0.24028168235003472 -0.7176071852746522 0.2762229038232406 L -0.7991030843550229 0.2762229038232406 C -0.8085710840730758 0.19173725555057824 -0.879999770999478 0.12784979442734984 -0.9650142833635105 0.1278281099012325 C -0.965256758516978 0.12782810990123328 -0.9655234811857918 0.12782810990123328 -0.9657756553453978 0.12782810990123328 L -1.1314152821820018 -0.03782121594150986 L -1.2355438120870128 -0.03782121594150986 C -1.0632482422877305 -0.07045109734360905 -0.8757397813599073 -0.04517791209770913 -0.6993269834547498 0.05751274014724139 C -0.4780465831519969 0.18631554166908787 -0.39060276855707254 0.45937651099478993 -0.4080318825883047 0.6475542033461834 C -0.41446717316132764 0.7170063615538315 -0.37846446237449793 0.7550458636297861 -0.3355972799930078 0.8424605812062947 Z M -0.5499695631734776 0.6683682705198194 C -0.5721445293295648 0.6683693343907008 -0.5912949014147997 0.683885786873278 -0.5958943572401905 0.7055785075709161 L -0.7080536642280397 0.7055785075709161 C -0.7123092285183423 0.692042975043894 -0.7248556693468007 0.6828341368143526 -0.7390444135926995 0.6828319134241453 C -0.7476569899808929 0.6828299837712973 -0.7559174425241038 0.6862501298610212 -0.7620079085775073 0.6923396864145288 C -0.7680983746309109 0.6984292429680369 -0.7715197543223535 0.7066891846446273 -0.7715191108965791 0.715301761224956 C -0.771519111024914 0.7239141404583452 -0.7680975247955053 0.7321737083208744 -0.7620071982516434 0.7382631254313179 C -0.7559168717077815 0.7443525425417612 -0.7476567929734208 0.7477728952871902 -0.7390444137143912 0.747771609025785 C -0.7248556693468007 0.7477693856355597 -0.7123092285183423 0.7385605474060183 -0.7080536642280397 0.7250250148789963 L -0.5958943572401905 0.7250250148789963 C -0.5912949014147997 0.7467177355766345 -0.5721445293295648 0.7622341880592115 -0.5499695631734776 0.762235251930093 C -0.5240517528194129 0.7622312349104605 -0.5030433464116446 0.7412195718903208 -0.5030433467229447 0.715301761224956 C -0.5030420604947232 0.7028550916291644 -0.5079854131814177 0.6909177296980725 -0.5167858555772862 0.6821159231040208 C -0.5255862979731545 0.6733141165099684 -0.5375228935277649 0.6683689135591712 -0.5499695631734414 0.6683682705198197 Z M -0.6776521294863056 1.0431839379980872 C -0.6998274243976854 1.0431840739410942 -0.7189783073109444 1.0587009403184369 -0.7235769235530185 1.0803941750491837 L -0.8357362305408675 1.0803941750491837 C -0.8399900708124273 1.0668567235464734 -0.8525369220516641 1.0576456207237084 -0.8667269799055275 1.0576427313993442 C -0.8753395821563557 1.0576420882838815 -0.8835996546811198 1.0610629804069465 -0.8896899115162407 1.0671527825077405 C -0.895780168351362 1.073242584608535 -0.8992016772334182 1.0815024016768495 -0.8992016772094071 1.0901150039516891 C -0.8992016772094071 1.0987276063170595 -0.8957801683043227 1.1069874233758346 -0.8896899114522241 1.1130772254596502 C -0.883599654600125 1.1191670275434649 -0.8753395820658243 1.1225879196435016 -0.8667269798149975 1.122587276504028 C -0.8525369220516641 1.1225843871796704 -0.8399900708124273 1.1133732843569053 -0.8357362305408675 1.0998358328541946 L -0.7235769235530185 1.0998358328541946 C -0.7189798341867506 1.121529646210882 -0.6998276736788631 1.1370465365484503 -0.6776521294863056 1.1370436451537573 C -0.6517333720441838 1.1370436452921178 -0.6307213168920844 1.1160337612554505 -0.6307186387811685 1.0901150039516891 C -0.63071997788546 1.064195299708508 -0.6517324252082328 1.0431839379635783 -0.6776521294861553 1.0431839379980872 Z M -0.5711934133564731 0.46878212219778825 C -0.5933680478697789 0.4687803763986954 -0.6125188817910161 0.4842970112010284 -0.6171157826716516 0.5059899344973504 L -0.7292750896595006 0.5059899344973504 C -0.7335289299310599 0.4924524829946395 -0.7460757811702967 0.4832413801718747 -0.7602658390241601 0.4832384908475098 C -0.7688792815738279 0.48323784757324406 -0.7771400891506406 0.48665940536477226 -0.783230485427244 0.49275025638611336 C -0.7893208817038473 0.49884110740745446 -0.7927418227084786 0.5071021704252945 -0.7927405363280398 0.5157156129029256 C -0.7927398932679626 0.5243277950537192 -0.7893181004950349 0.5325869891879219 -0.7832279133662665 0.5386762668584523 C -0.7771377262374985 0.5447655445289818 -0.768878021174979 0.5481861038118334 -0.7602658390241741 0.5481854607037355 C -0.7460757811702967 0.5481825713793711 -0.7335289299310599 0.5389714685566059 -0.7292750896595006 0.5254340170538957 L -0.6171157826716511 0.5254340170538957 C -0.6125197217883238 0.5471274545741024 -0.5933683767146201 0.5626445035289569 -0.5711934133564736 0.5626418293534586 C -0.5452750481685968 0.5626431685962046 -0.5242626008254903 0.5416339779870325 -0.5242599226513365 0.5157156129029252 C -0.5242612616722861 0.4897955163908806 -0.5452733168447057 0.46878346121858516 -0.5711934133566114 0.46878212219778825 Z M -0.8044908822650674 0.8492911062794696 C -0.841230339917227 0.8492944532442216 -0.8729572370433072 0.8750041802256999 -0.8805747359200469 0.9109452635516085 L -1.0663955697797374 0.9109452635516085 C -1.0734422251562274 0.8885161240723632 -1.09422965101508 0.873254668468976 -1.1177396835264448 0.8732500761935768 C -1.1474532091397347 0.8732487369622545 -1.1715422418897783 0.8973345129706017 -1.1715449200808463 0.9270480384933738 C -1.1715449200808463 0.9413178515627315 -1.165876092965375 0.9550031747394755 -1.1557855840425866 0.9650932289095072 C -1.1456950751197976 0.9751832830795396 -1.132009496472034 0.9808514934137537 -1.1177396834718067 0.9808508502962375 C -1.0942296510150797 0.9808462580208402 -1.0734422251562274 0.965584802417453 -1.0663955697797374 0.9431556629382082 L -0.8805674616654433 0.9431556629382082 C -0.8729482837506413 0.9790957183866505 -0.8412224080816109 1.004804617635692 -0.8044836080104638 1.004809820210347 C -0.7838605443008355 1.0048091771362828 -0.7640824030505031 0.9966160802357363 -0.7495001495817049 0.9820329173086947 C -0.7349178961129061 0.9674497543816535 -0.7267260327024416 0.9476711022030003 -0.7267266757965594 0.9270480384933731 C -0.7267273188536509 0.9064245546488127 -0.7349207486044289 0.8866460459179152 -0.7495044359706742 0.8720637227455653 C -0.7640881233369199 0.8574813995732157 -0.7838673984506441 0.8492898200750522 -0.8044908822650947 0.8492911062794691 Z" fill="#3682ae" transform="matrix(1,0,0,1,0,0)" fill-rule="evenodd"></path></g><g clip-path="url(#SvgjsClipPath12210c7fc08d-9758-4cc7-9d90-69ff277aa38a)"><path d=" M -2.19307819312951 0.3745974983364726 C -2.18518525056275 0.3746007446162539 -2.1773199168151574 0.37366550002596255 -2.169647819049961 0.37181145882313316 L -2.0216385606219673 0.5198158677480581 L -1.4994561938723932 0.5198158677480581 L -1.3591018760393623 0.6601774598356928 C -1.3623601543332184 0.6700719863822595 -1.364016129459013 0.6804236727098908 -1.3640071483940064 0.6908408677431717 C -1.3640071483940064 0.7167976708984815 -1.3536958484892185 0.7416913509743157 -1.3353416169601748 0.7600455825033597 C -1.3169873854311307 0.7783998140324035 -1.2920937053552966 0.7887111139371913 -1.2661369021999866 0.7887111139371913 C -1.2186898177514611 0.7887088433439288 -1.1780755319923395 0.7546805198874251 -1.1697651524543957 0.7079668878325692 L -1.208241109806592 0.7079668878325692 C -1.215287439704006 0.7303986941934002 -1.236077593524152 0.745661692797631 -1.2595900730563685 0.745664499942136 C -1.2893022594310184 0.7456631608315172 -1.3133880353863419 0.7215762992956298 -1.3133880353561653 0.691864112890804 C -1.313388678459197 0.6775955860587758 -1.3077209790394113 0.6639112409068469 -1.2976318343173778 0.653821641452544 C -1.287542689595345 0.6437320419982403 -1.2738585999029262 0.6380637258249837 -1.2595900730563867 0.6380637258394718 C -1.2360789073691667 0.6380658673456091 -1.2152891641368737 0.6533266010919374 -1.2082411098065922 0.6757564884459688 L -1.1694305367426105 0.6757564884459688 C -1.176876016807882 0.628110512651094 -1.2179126949925463 0.5929850175813134 -1.2661369021999866 0.5929803205552913 C -1.274889506537353 0.5929758970624208 -1.2836032255258827 0.5941445221733772 -1.292045372347971 0.5964549895044778 L -1.4611548186306926 0.4273431184702219 L -1.9833371853802666 0.4273431184702219 L -2.1003508449405324 0.3103294589099562 C -2.096198358149509 0.29922523556747926 -2.094076876139291 0.28746468546902104 -2.0940877117264707 0.27560944168496904 C -2.0940877117264702 0.24935362993497678 -2.104518290144955 0.22417329448278694 -2.123084634628905 0.2056083143018178 C -2.141650979112854 0.18704333412084795 -2.1668320809910786 0.17661460611463964 -2.1930878924029127 0.17661653553041518 C -2.2193428633374324 0.17661589243601455 -2.2445227192983372 0.18704518834523115 -2.263088014844568 0.20561002916063303 C -2.2816533103907988 0.22417486997603497 -2.292083223049632 0.2493544704753085 -2.2920832230417556 0.27560944168496904 C -2.292081937008624 0.3018652532395256 -2.2816501251657644 0.3270450778524532 -2.263082871246296 0.3456091486320557 C -2.244515617326827 0.3641732194116587 -2.219334004517808 0.3746007139429077 -2.193078193129088 0.37459749833647293 Z" fill="#3682ae" transform="matrix(1,0,0,1,0,0)" fill-rule="evenodd"></path></g><g clip-path="url(#SvgjsClipPath12210c7fc08d-9758-4cc7-9d90-69ff277aa38a)"><path d=" M -2.251371644774591 0.906796513675782 C -2.243477408527468 0.9068008163786098 -2.235610861452006 0.905863082290144 -2.227938845943508 0.9040031999078383 L -2.079932012267048 1.0520124583358332 L -1.5577423712628706 1.0520124583358332 L -1.417385628678305 1.1923716256719326 C -1.4206453095723137 1.2022667118012267 -1.4223021154601212 1.2126192928600728 -1.4222933257844836 1.2230374583309467 C -1.4222933257844836 1.2489944587740247 -1.4119816156190392 1.273888257045662 -1.39362678992196 1.2922421732325238 C -1.375271964224881 1.310596089419385 -1.3503776550098388 1.320906566015109 -1.3244206547187791 1.320905279773425 C -1.2746673845714587 1.3209024307905608 -1.232833634610652 1.2835723291734156 -1.2271881182985294 1.234140395608216 L -1.2704044649010124 1.234140395608216 C -1.277452787584398 1.2565711367213197 -1.298243792202324 1.2718320757517123 -1.3217558529023243 1.2718331582147124 C -1.3360247998601789 1.2718338013511685 -1.349709512500171 1.2661657690903043 -1.3597991816647097 1.256076099925766 C -1.3698888508292484 1.2459864307612274 -1.3755568830901117 1.232301718121235 -1.3755562399536565 1.2180327711633807 C -1.3755549009159171 1.1883201925252806 -1.351468431540551 1.1642337231498576 -1.3217558529023878 1.164232384112049 C -1.2982424783362325 1.1642341321701504 -1.2774510630982194 1.179497336094288 -1.2704044649010124 1.2019299962216152 L -1.2288442235967112 1.2019299962216152 C -1.2387589784258288 1.157093427262967 -1.2785033646189305 1.1251722866041969 -1.3244230795904635 1.1251647873853923 C -1.3331746950480166 1.1251608102102444 -1.3418874468269826 1.126328599479009 -1.350329124986914 1.1286370315830445 L -1.5194385712696357 0.9595251605487881 L -2.0416160885161405 0.9595251605487881 L -2.158634597579475 0.8425139257400575 C -2.1544780457946207 0.831410595053233 -2.152354044978763 0.8196497413477922 -2.15236419011081 0.8077939085150704 C -2.1523668683546298 0.7531158872675664 -2.1966936234779304 0.7087923889101855 -2.251371644774609 0.708793728105893 C -2.306046040786719 0.708796406319716 -2.350366975746294 0.7531195124373461 -2.350366975680698 0.8077939085150704 C -2.350368905025596 0.8340503630109625 -2.3399399214872507 0.8592320816060749 -2.3213744865270414 0.8777988807690295 C -2.302809051566831 0.896365679931984 -2.2776280993414453 0.9067965137466564 -2.2513716447746286 0.9067965136757815 Z" fill="#3682ae" transform="matrix(1,0,0,1,0,0)" fill-rule="evenodd"></path></g><g clip-path="url(#SvgjsClipPath12210c7fc08d-9758-4cc7-9d90-69ff277aa38a)"><path d=" M -1.8919579990445683 -0.021463842088603247 C -1.8840644192546683 -0.02145955504031527 -1.8761985811347446 -0.022398115668719548 -1.8685276249650202 -0.024259580608081865 L -1.7205159417854912 0.12374482831684314 L -1.1983359997874519 0.12374482831684314 L -1.0579719829482823 0.26410884515601263 C -1.061236193577493 0.27400296147110276 -1.062894712542672 0.28435601643290975 -1.0628845295575309 0.2947746778150261 C -1.0628851727048172 0.3207314551669469 -1.0525740019428595 0.34562525965138424 -1.034219561287994 0.3639792455720888 C -1.0158651206331282 0.38233323149279297 -0.9909710606922852 0.39264378549601575 -0.965014283363888 0.3926424992575107 C -0.916240094854146 0.39263983613176834 -0.8749102237001676 0.3567292758288785 -0.8680969645226178 0.30843330320984097 L -0.9034377181404818 0.30843330320984097 C -0.9104863661922828 0.3308613773581164 -0.9312746428363738 0.3461207734742743 -0.9547842566387239 0.34612364106480276 C -0.9690534265492525 0.34612492728534683 -0.982738643922566 0.3404575891641657 -0.9928291528445339 0.33036844443898794 C -1.0029196617665013 0.3202792997138101 -1.008588850148068 0.3065948487190151 -1.0085894931931254 0.29232567876500626 C -1.008586815057226 0.26261176102140643 -0.9844981745030343 0.23852529159298913 -0.9547842566387339 0.2385252917136746 C -0.931272672151892 0.23852915787894863 -0.9104837797012464 0.25379195117939163 -0.9034377181404818 0.2762229038232406 L -0.8689092562867338 0.2762229038232406 C -0.8778068615846581 0.23017488871806774 -0.9181145278804064 0.19690771627284182 -0.9650142833635109 0.19690443162100685 C -0.9737644864720703 0.19689770671818668 -0.982476001103745 0.19806554878451865 -0.9909154792568913 0.20037667581865964 L -1.1600321997942173 0.03126238003286841 L -1.682214566543791 0.03126238003286841 L -1.7992282261040566 -0.0857512795273972 C -1.7950714596122428 -0.09685202594211262 -1.79294743726812 -0.10861053478915704 -1.7929578186353918 -0.12046402249778122 C -1.7929571755227536 -0.14672069998824358 -1.8033873152046458 -0.17190215691572472 -1.8219535899153283 -0.19046843162653576 C -1.8405198646260104 -0.20903470633734678 -1.865701321553419 -0.21946484601941268 -1.8919579990442255 -0.21946420290695692 C -1.9182146765353751 -0.21946484601950395 -1.9433961334628194 -0.20903470633752472 -1.9619624081735665 -0.19046843162677832 C -1.9805286828843134 -0.17190215691603117 -1.9909588225662926 -0.14672069998858653 -1.9909581794537456 -0.12046402249778008 C -1.990958178301529 -0.06578773054102241 -1.9466342868287816 -0.021463840936387063 -1.8919579969582958 -0.021463842088604024 Z" fill="#3682ae" transform="matrix(1,0,0,1,0,0)" fill-rule="evenodd"></path></g></g></g><defs><clipPath id="SvgjsClipPath1223"><path d=" M -2.3503645509291644 -0.21946420290695767 h 2.1403645509291644 v 2.103842943313915 h -2.1403645509291644 Z"></path></clipPath><clipPath id="SvgjsClipPath12210c7fc08d-9758-4cc7-9d90-69ff277aa38a"><path d=" M -2.3503645509291644 -0.21946420290695767 L -0.20999999999999996 -0.21946420290695767 L -0.20999999999999996 1.8843787404069574 L -2.3503645509291644 1.8843787404069574 Z"></path></clipPath></defs></svg>